<svg xmlns="http://www.w3.org/2000/svg" viewBox="0 0 32 32">
  <rect width="32" height="32" rx="7" fill="#161819"/>
  <defs>
    <linearGradient id="flame" x1="0.5" y1="0" x2="0.5" y2="1">
      <stop offset="0%" stop-color="#ffda44"/>
      <stop offset="55%" stop-color="#ff8c00"/>
      <stop offset="100%" stop-color="#e63000"/>
    </linearGradient>
  </defs>
  <!-- outer flame -->
  <path d="M16 4 C16 4 22 10 22 16 C22 19 20.5 21.5 18.5 23 C19 21 18.5 19 17 18 C17.5 20 16.5 22 15 23 C13 21.5 10 19 10 15 C10 12 12 9 13 8 C13 11 14.5 12.5 16 13 C14.5 10.5 15 7 16 4Z" fill="url(#flame)"/>
  <!-- inner highlight -->
  <path d="M16 13 C15 15 14.5 17 15.5 19.5 C14 18.5 13.5 16.5 14 15 C13 16 12.5 18 13 20 C11.5 18.5 11 17 11 15 C11 12.5 12.5 10 13.5 9 C13.2 11.5 14.5 12.5 16 13Z" fill="#fff5" opacity="0.6"/>
  <!-- base glow dot -->
  <ellipse cx="16" cy="25" rx="3.5" ry="1.5" fill="#e6300055"/>
</svg>
